<?xml version="1.0" standalone="no"?>
<!DOCTYPE svg PUBLIC "-//W3C//DTD SVG 20010904//EN"
 "http://www.w3.org/TR/2001/REC-SVG-20010904/DTD/svg10.dtd">
<svg version="1.0" xmlns="http://www.w3.org/2000/svg"
 width="1024.000000pt" height="1024.000000pt" viewBox="0 0 1024.000000 1024.000000"
 preserveAspectRatio="xMidYMid meet">
<metadata>
Created by potrace 1.14, written by Peter Selinger 2001-2017
</metadata>
<g transform="translate(0.000000,1024.000000) scale(0.100000,-0.100000)"
fill="#000000" stroke="none">
<path d="M1233 9889 c-414 -44 -779 -379 -870 -799 -17 -82 -18 -245 -18
-3970 0 -3725 1 -3888 18 -3970 43 -200 128 -353 281 -506 153 -153 306 -238
506 -281 82 -17 245 -18 3980 -18 l3895 0 85 22 c190 48 334 128 472 261 182
176 282 377 308 622 14 136 14 7607 -1 7738 -25 235 -110 420 -268 585 -179
187 -387 291 -631 316 -126 13 -7633 13 -7757 0z m5568 -2049 c30 -5 88 -26
129 -46 70 -34 98 -60 451 -413 308 -309 381 -387 407 -437 87 -168 79 -375
-22 -526 -19 -29 -160 -177 -313 -329 -306 -305 -308 -306 -385 -271 -65 30
-1241 1212 -1258 1265 -21 68 -11 83 303 394 245 244 302 294 352 318 106 51
223 66 336 45z m-1219 -1038 c15 -10 210 -204 434 -432 224 -228 496 -505 604
-615 209 -212 221 -230 195 -290 -7 -16 -670 -686 -1473 -1489 l-1459 -1458
-604 -64 c-332 -35 -624 -64 -649 -64 -118 1 -239 121 -240 240 0 25 29 317
64 649 l65 605 1468 1468 1468 1468 50 0 c31 0 60 -7 77 -18z"/>
</g>
</svg>
